<svg width="301" height="94" viewBox="0 0 301 94" fill="none" xmlns="http://www.w3.org/2000/svg">
<rect width="301" height="94" fill="white"/>
<circle cx="52.5" cy="36.5" r="33.5" fill="#006BA1"/>
<path d="M54.1997 91.259C53.4176 92.5203 51.5824 92.5203 50.8003 91.259L41.8365 76.804C41.0103 75.4717 41.9685 73.75 43.5362 73.75H61.4638C63.0315 73.75 63.9897 75.4717 63.1635 76.804L54.1997 91.259Z" fill="#006BA1"/>
<g filter="url(#filter0_d_0_1)">
<ellipse cx="53" cy="37" rx="25" ry="26" fill="white"/>
</g>
<path d="M115.188 47.3906C115.188 49.8802 114.406 51.8177 112.844 53.2031C111.292 54.5885 109.12 55.2812 106.328 55.2812C103.516 55.2812 101.339 54.5938 99.7969 53.2188C98.2656 51.8438 97.5 49.901 97.5 47.3906V32.3438H100.562V47.3906C100.562 49.099 101.036 50.3698 101.984 51.2031C102.943 52.026 104.391 52.4375 106.328 52.4375C110.193 52.4375 112.125 50.7552 112.125 47.3906V32.3438H115.188V47.3906ZM127.094 42.7812C126.115 41.375 124.943 39.5156 123.578 37.2031V55H120.656V32.3438H123.25L131.641 44.25C132.474 45.4271 133.724 47.3698 135.391 50.0781V32.3438H138.297V55H135.703L127.094 42.7812ZM144.25 32.3438H147.328V55H144.25V32.3438ZM156.359 41.7812H165.703V44.5H156.359V52.2812H167.109V55H153.281V32.3438H166.766V35.0625H156.359V41.7812ZM177.531 32.0938C179.344 32.0833 181.219 32.4844 183.156 33.2969L182.391 36.125C180.453 35.375 178.812 35 177.469 35C176.104 35 175.021 35.2656 174.219 35.7969C173.417 36.3281 173.016 37.0677 173.016 38.0156C173.016 38.7031 173.156 39.276 173.438 39.7344C173.729 40.1823 174.219 40.5885 174.906 40.9531C175.594 41.3177 176.552 41.6823 177.781 42.0469C179.979 42.6823 181.542 43.5208 182.469 44.5625C183.396 45.5938 183.859 46.9948 183.859 48.7656C183.859 50.7969 183.177 52.3906 181.812 53.5469C180.448 54.7031 178.573 55.2812 176.188 55.2812C174.135 55.2812 171.854 54.75 169.344 53.6875L170.266 50.9062C171.672 51.4583 172.792 51.8438 173.625 52.0625C174.458 52.2708 175.312 52.375 176.188 52.375C177.573 52.375 178.667 52.0573 179.469 51.4219C180.271 50.776 180.672 49.901 180.672 48.7969C180.672 48.0885 180.521 47.5 180.219 47.0312C179.917 46.5625 179.396 46.1406 178.656 45.7656C177.927 45.3906 176.891 45.0208 175.547 44.6562C173.495 44.1042 172.026 43.3438 171.141 42.375C170.255 41.4062 169.812 40.099 169.812 38.4531C169.812 36.4427 170.495 34.8802 171.859 33.7656C173.234 32.651 175.125 32.0938 177.531 32.0938ZM202.188 59.0625C202.927 59.0625 203.703 58.9219 204.516 58.6406L205.406 61.2656C204.229 61.651 203.089 61.8438 201.984 61.8438C200.047 61.8438 198.474 61.2604 197.266 60.0938C196.068 58.9375 195.339 57.3021 195.078 55.1875C192.349 54.8229 190.26 53.651 188.812 51.6719C187.375 49.6927 186.656 46.9948 186.656 43.5781C186.656 39.9115 187.552 37.0833 189.344 35.0938C191.135 33.0938 193.677 32.0938 196.969 32.0938C200.229 32.0938 202.755 33.099 204.547 35.1094C206.339 37.1094 207.234 39.9323 207.234 43.5781C207.234 47.2031 206.411 50.026 204.766 52.0469C203.13 54.0573 200.776 55.1354 197.703 55.2812C197.943 56.5625 198.427 57.5104 199.156 58.125C199.896 58.75 200.906 59.0625 202.188 59.0625ZM189.859 43.5781C189.859 46.4323 190.474 48.625 191.703 50.1562C192.932 51.6771 194.688 52.4375 196.969 52.4375C199.25 52.4375 200.995 51.6719 202.203 50.1406C203.422 48.599 204.031 46.4115 204.031 43.5781C204.031 40.8073 203.422 38.6823 202.203 37.2031C200.995 35.7135 199.25 34.9688 196.969 34.9688C194.667 34.9688 192.906 35.7083 191.688 37.1875C190.469 38.6562 189.859 40.7865 189.859 43.5781ZM228.969 47.3906C228.969 49.8802 228.188 51.8177 226.625 53.2031C225.073 54.5885 222.901 55.2812 220.109 55.2812C217.297 55.2812 215.12 54.5938 213.578 53.2188C212.047 51.8438 211.281 49.901 211.281 47.3906V32.3438H214.344V47.3906C214.344 49.099 214.818 50.3698 215.766 51.2031C216.724 52.026 218.172 52.4375 220.109 52.4375C223.974 52.4375 225.906 50.7552 225.906 47.3906V32.3438H228.969V47.3906ZM234.438 32.3438H237.516V55H234.438V32.3438ZM249.906 42.7812C248.927 41.375 247.755 39.5156 246.391 37.2031V55H243.469V32.3438H246.062L254.453 44.25C255.286 45.4271 256.536 47.3698 258.203 50.0781V32.3438H261.109V55H258.516L249.906 42.7812ZM269.891 48.4375L267.641 55H264.547L272.344 32.3438H276.188L284.281 55H281.281L278.938 48.4375H269.891ZM274.234 35.5156L270.812 45.7188H277.984L274.438 35.5156H274.234Z" fill="black"/>
<defs>
<filter id="filter0_d_0_1" x="24" y="11" width="58" height="60" filterUnits="userSpaceOnUse" color-interpolation-filters="sRGB">
<feFlood flood-opacity="0" result="BackgroundImageFix"/>
<feColorMatrix in="SourceAlpha" type="matrix" values="0 0 0 0 0 0 0 0 0 0 0 0 0 0 0 0 0 0 127 0" result="hardAlpha"/>
<feOffset dy="4"/>
<feGaussianBlur stdDeviation="2"/>
<feComposite in2="hardAlpha" operator="out"/>
<feColorMatrix type="matrix" values="0 0 0 0 0 0 0 0 0 0 0 0 0 0 0 0 0 0 0.25 0"/>
<feBlend mode="normal" in2="BackgroundImageFix" result="effect1_dropShadow_0_1"/>
<feBlend mode="normal" in="SourceGraphic" in2="effect1_dropShadow_0_1" result="shape"/>
</filter>
</defs>
</svg>
